<mxfile host="app.diagrams.net" modified="2023-10-20T05:56:35.762Z" agent="Mozilla/5.0 (Windows NT 10.0; Win64; x64) AppleWebKit/537.36 (KHTML, like Gecko) Chrome/95.0.4638.69 Safari/537.36" version="22.0.5" etag="igZInwWJb6cK2lpsD5tl" type="github">
  <diagram name="第 1 页" id="6n11UT0p_A5hiTh3Dvfy">
    <mxGraphModel>
      <root>
        <mxCell id="0" />
        <mxCell id="1" parent="0" />
      </root>
    </mxGraphModel>
  </diagram>
</mxfile>
